<svg width="12" height="13" viewBox="0 0 12 13" fill="none" xmlns="http://www.w3.org/2000/svg">
<g id="bxs:down-arrow">
<path id="Vector" d="M5.58903 9.79915C5.6349 9.86577 5.69628 9.92024 5.76787 9.95787C5.83947 9.9955 5.91914 10.0152 6.00003 10.0152C6.08091 10.0152 6.16059 9.9955 6.23218 9.95787C6.30378 9.92024 6.36516 9.86577 6.41103 9.79915L10.911 3.29915C10.9631 3.22418 10.9937 3.13636 10.9993 3.04525C11.005 2.95414 10.9856 2.86321 10.9433 2.78235C10.9009 2.70148 10.8372 2.63377 10.759 2.58658C10.6809 2.53938 10.5913 2.51451 10.5 2.51465H1.50003C1.40895 2.51503 1.3197 2.54022 1.24187 2.58753C1.16404 2.63484 1.10058 2.70247 1.05831 2.78315C1.01605 2.86382 0.996572 2.9545 1.00198 3.04541C1.0074 3.13633 1.03749 3.22406 1.08903 3.29915L5.58903 9.79915Z" fill="#70707E"/>
</g>
</svg>
